<?xml version="1.0" encoding="UTF-8" standalone="no"?>
<!-- Created with Inkscape (http://www.inkscape.org/) -->

<svg
   width="512"
   height="512"
   viewBox="0 0 512 512"
   version="1.1"
   id="svg1"
   inkscape:version="1.3 (0e150ed6c4, 2023-07-21)"
   sodipodi:docname="Apotek Sehat Terus.svg"
   inkscape:export-filename="Apotek Sehat Terus.png"
   inkscape:export-xdpi="96"
   inkscape:export-ydpi="96"
   xmlns:inkscape="http://www.inkscape.org/namespaces/inkscape"
   xmlns:sodipodi="http://sodipodi.sourceforge.net/DTD/sodipodi-0.dtd"
   xmlns="http://www.w3.org/2000/svg"
   xmlns:svg="http://www.w3.org/2000/svg">
  <sodipodi:namedview
     id="namedview1"
     pagecolor="#ffffff"
     bordercolor="#000000"
     borderopacity="0.25"
     inkscape:showpageshadow="2"
     inkscape:pageopacity="0.0"
     inkscape:pagecheckerboard="0"
     inkscape:deskcolor="#d1d1d1"
     inkscape:document-units="px"
     inkscape:zoom="1.2224431"
     inkscape:cx="226.1864"
     inkscape:cy="255.63562"
     inkscape:window-width="1280"
     inkscape:window-height="1001"
     inkscape:window-x="-8"
     inkscape:window-y="-8"
     inkscape:window-maximized="1"
     inkscape:current-layer="layer1"
     inkscape:export-bgcolor="#ffffffff" />
  <defs
     id="defs1">
    <inkscape:path-effect
       effect="mirror_symmetry"
       start_point="501.60715,261.68634"
       end_point="10.392838,261.68634"
       center_point="256,261.68634"
       id="path-effect15"
       is_visible="true"
       lpeversion="1.2"
       lpesatellites=""
       mode="vertical"
       discard_orig_path="false"
       fuse_paths="false"
       oposite_fuse="false"
       split_items="false"
       split_open="false"
       link_styles="false" />
    <inkscape:path-effect
       effect="mirror_symmetry"
       start_point="0,260.89603"
       end_point="512,260.89603"
       center_point="256,260.89603"
       id="path-effect13"
       is_visible="true"
       lpeversion="1.2"
       lpesatellites=""
       mode="vertical"
       discard_orig_path="false"
       fuse_paths="false"
       oposite_fuse="false"
       split_items="false"
       split_open="false"
       link_styles="false" />
    <inkscape:path-effect
       effect="mirror_symmetry"
       start_point="10.392842,259.52234"
       end_point="501.60716,259.52234"
       center_point="256,259.52234"
       id="path-effect11"
       is_visible="true"
       lpeversion="1.2"
       lpesatellites=""
       mode="horizontal"
       discard_orig_path="false"
       fuse_paths="false"
       oposite_fuse="false"
       split_items="false"
       split_open="false"
       link_styles="false" />
    <inkscape:path-effect
       effect="fillet_chamfer"
       id="path-effect2"
       is_visible="true"
       lpeversion="1"
       nodesatellites_param="F,0,0,1,0,15,0,1 @ F,0,0,1,0,15,0,1 @ F,0,0,1,0,15,0,1 @ F,0,0,1,0,15,0,1 @ F,0,0,1,0,15,0,1 @ F,0,0,1,0,15,0,1 @ F,0,0,1,0,15,0,1 @ F,0,0,1,0,15,0,1 @ F,0,0,1,0,15,0,1 @ F,0,0,1,0,15,0,1 @ F,0,0,1,0,15,0,1 @ F,0,0,1,0,15,0,1"
       radius="15"
       unit="px"
       method="auto"
       mode="F"
       chamfer_steps="1"
       flexible="false"
       use_knot_distance="true"
       apply_no_radius="true"
       apply_with_radius="true"
       only_selected="false"
       hide_knots="false" />
    <inkscape:path-effect
       effect="fillet_chamfer"
       id="path-effect3"
       is_visible="true"
       lpeversion="1"
       nodesatellites_param="F,0,0,1,0,0,0,1 @ F,0,0,1,0,15,0,1 @ F,0,0,1,0,15,0,1 @ F,0,0,1,0,15,0,1 @ F,0,0,1,0,0,0,1"
       radius="15"
       unit="px"
       method="auto"
       mode="F"
       chamfer_steps="1"
       flexible="false"
       use_knot_distance="true"
       apply_no_radius="true"
       apply_with_radius="true"
       only_selected="false"
       hide_knots="false" />
  </defs>
  <g
     inkscape:label="Layer 1"
     inkscape:groupmode="layer"
     id="layer1">
    <g
       id="g4"
       transform="translate(-42.434609,-38.277901)"
       style="display:none">
      <path
         style="color:#000000;fill:#ffc300;fill-opacity:1;stroke-linecap:round;stroke-linejoin:round;-inkscape-stroke:none"
         d="m 118.51234,371.62239 c 0,58.7634 47.95926,106.72071 106.72266,106.72071 58.76339,0 106.72265,-47.95731 106.72265,-106.72071 0,-58.76339 -47.95926,-106.72265 -106.72265,-106.72265 v 30 c 42.5502,0 76.72265,34.17245 76.72265,76.72265 0,42.55021 -34.17245,76.72071 -76.72265,76.72071 -42.55021,0 -76.72266,-34.1705 -76.72266,-76.72071 z"
         id="path3"
         sodipodi:nodetypes="cssccsscc" />
    </g>
    <path
       style="display:none;fill:none;stroke:#ffc300;stroke-width:30;stroke-linecap:round;stroke-linejoin:round;stroke-dasharray:none;stroke-opacity:1"
       d="m 91.077731,321.34449 v -91.72265 l -0.02779,-69.31181 m 65.722399,-61.233491 264.14993,0.15591 c 16.19632,9.350951 14.60457,23.061351 0,31.493301 H 320.51789 v 283.1279"
       id="path4"
       sodipodi:nodetypes="cccccccc" />
    <path
       style="display:none;fill:none;stroke:#ffc300;stroke-width:30;stroke-linecap:round;stroke-linejoin:round;stroke-dasharray:none;stroke-opacity:1"
       d="m 156.77234,99.076539 264.14993,0.15591 c 16.19632,9.350951 14.60457,23.061351 0,31.493301 H 320.51789 v 283.1279"
       id="path6"
       sodipodi:nodetypes="ccccc" />
    <path
       style="display:none;fill:none;stroke:#ffc300;stroke-width:30;stroke-linecap:round;stroke-linejoin:round;stroke-dasharray:none;stroke-opacity:1"
       d="m 182.80039,241.62184 -21.3221,-0.51365"
       id="path5"
       sodipodi:nodetypes="cc"
       inkscape:label="path5" />
    <path
       style="display:none;fill:none;stroke:#ffc300;stroke-width:30;stroke-linecap:round;stroke-dasharray:none;stroke-opacity:1"
       id="path1"
       sodipodi:type="arc"
       sodipodi:cx="-170.0144"
       sodipodi:cy="161.47829"
       sodipodi:rx="70.503418"
       sodipodi:ry="70.400558"
       sodipodi:start="3.1415927"
       sodipodi:end="0"
       sodipodi:arc-type="arc"
       d="m -240.51782,161.47829 a 70.503418,70.400558 0 0 1 70.50342,-70.400562 70.503418,70.400558 0 0 1 70.503414,70.400562"
       sodipodi:open="true"
       transform="rotate(-90)" />
    <path
       style="display:none;fill:none;stroke:#ffc300;stroke-width:30;stroke-linecap:round;stroke-dasharray:none;stroke-opacity:1"
       id="path2"
       sodipodi:type="arc"
       sodipodi:cx="-281.43222"
       sodipodi:cy="182.80038"
       sodipodi:rx="51.81036"
       sodipodi:ry="51.81036"
       sodipodi:start="4.712389"
       sodipodi:end="0"
       sodipodi:arc-type="arc"
       d="m -281.43222,130.99002 a 51.81036,51.81036 0 0 1 51.81036,51.81036"
       sodipodi:open="true"
       transform="rotate(-90)" />
    <path
       style="display:none;fill:none;stroke:#ffc300;stroke-width:30;stroke-linecap:round;stroke-linejoin:round;stroke-dasharray:none;stroke-opacity:1"
       d="M 91.077731,333.34449 V 248.91156"
       id="path7"
       sodipodi:nodetypes="cc" />
    <path
       style="display:none;fill:none;stroke:#00afff;stroke-width:30;stroke-linecap:round;stroke-linejoin:round;stroke-dasharray:none;stroke-opacity:1"
       d="m 221.55733,99.076539 199.36494,0.15591 c 16.19632,9.350951 14.60457,23.061351 0,31.493301 H 320.51789 v 294.17136"
       id="path8"
       sodipodi:nodetypes="ccccc" />
    <path
       id="rect1"
       style="opacity:1;fill:#32be00;fill-opacity:1;stroke:none;stroke-width:5;stroke-linecap:round;stroke-linejoin:round;stroke-opacity:1"
       d="m 209.39453,120.27539 v 70.64844 a 15,15 135 0 1 -15,15 h -70.64844 a 15,15 135 0 0 -15,15 v 70.64844 a 15,15 45 0 0 15,15 h 70.64844 a 15,15 45 0 1 15,15 v 70.64843 a 15,15 45 0 0 15,15 h 70.64844 a 15,15 135 0 0 15,-15 v -70.64843 a 15,15 135 0 1 15,-15 h 70.64844 a 15,15 135 0 0 15,-15 v -70.64844 a 15,15 45 0 0 -15,-15 h -70.64844 a 15,15 45 0 1 -15,-15 v -70.64844 a 15,15 45 0 0 -15,-15 h -70.64844 a 15,15 135 0 0 -15,15 z"
       inkscape:path-effect="#path-effect2"
       inkscape:original-d="M 209.39453,105.27539 V 205.92383 H 108.74609 V 306.57227 H 209.39453 V 407.2207 H 310.04297 V 306.57227 H 410.69141 V 205.92383 H 310.04297 V 105.27539 Z"
       transform="translate(-3.71875,-0.248045)" />
    <path
       id="path10"
       style="opacity:1;fill:#00afff;fill-opacity:1;stroke:none;stroke-width:14.5758;stroke-linecap:round;stroke-linejoin:round;stroke-dasharray:none;stroke-opacity:1"
       inkscape:transform-center-x="9.8035876e-06"
       inkscape:transform-center-y="-2.1987411"
       d="M 256,33.097656 207.66992,67.214844 256,50.15625 304.33008,67.214844 Z m 0,452.849374 -48.33008,-34.11719 48.33008,17.0586 48.33008,-17.0586 z"
       inkscape:path-effect="#path-effect11"
       inkscape:original-d="M 256,33.097656 207.66992,67.214844 256,50.15625 304.33008,67.214844 Z"
       transform="matrix(1.0423149,0,0,1.0160559,-10.832614,-7.6892078)" />
    <circle
       style="opacity:1;fill:none;fill-opacity:1;stroke:#ffc300;stroke-width:25;stroke-linecap:round;stroke-linejoin:round;stroke-dasharray:none;stroke-opacity:1"
       id="path9"
       cx="256"
       cy="256"
       r="185.2847" />
    <path
       id="path13"
       style="opacity:1;fill:#00afff;fill-opacity:1;stroke:none;stroke-width:14.5758;stroke-linecap:round;stroke-linejoin:round;stroke-dasharray:none;stroke-opacity:1"
       inkscape:transform-center-x="214.9264"
       inkscape:transform-center-y="-2.1987411"
       d="M 256,33.097656 207.66992,67.214844 256,50.15625 304.33008,67.214844 Z m 0,457.177374 -48.33008,-34.11719 48.33008,17.0586 48.33008,-17.0586 z"
       inkscape:path-effect="#path-effect15"
       inkscape:original-d="M 256,33.097656 207.66992,67.214844 256,50.15625 304.33008,67.214844 Z"
       transform="matrix(0,-1.0423149,1.0160559,0,-9.8879542,522.83261)" />
  </g>
</svg>
